/* XPM */
static char *result[] = {
/* columns rows colors chars-per-pixel */
"32 32 201 2 ",
"   c #010101",
".  c #020202",
"X  c #030202",
"o  c gray1",
"O  c #060503",
"+  c gray2",
"@  c #070604",
"#  c #060606",
"$  c #070707",
"%  c #04040D",
"&  c #090909",
"*  c #0C0B0C",
"=  c #0C0C0C",
"-  c #0D0D0C",
";  c #060814",
":  c #080919",
">  c #09091E",
",  c #111111",
"<  c gray7",
"1  c #131313",
"2  c #151415",
"3  c gray9",
"4  c #1B1B1B",
"5  c #302614",
"6  c #3C301A",
"7  c #0A0D23",
"8  c #202020",
"9  c #232223",
"0  c #232323",
"q  c gray14",
"w  c gray15",
"e  c #272727",
"r  c #292927",
"t  c #292829",
"y  c #2B282B",
"u  c #2A2A2A",
"i  c #2C2C2B",
"p  c #2E2E2C",
"a  c gray18",
"s  c #2F2F2E",
"d  c #2F2E2F",
"f  c #31312F",
"g  c gray19",
"h  c #313031",
"j  c #333131",
"k  c #353331",
"l  c #343430",
"z  c #353531",
"x  c #343432",
"c  c #383735",
"v  c #393836",
"b  c #3A3937",
"n  c gray22",
"m  c #393939",
"M  c #3D3D3B",
"N  c #42423F",
"B  c #141748",
"V  c #15194D",
"C  c #161A52",
"Z  c #161B56",
"A  c #181D5A",
"S  c #262B7B",
"D  c #464546",
"F  c #484844",
"G  c #484848",
"H  c #494949",
"J  c #4B4B4B",
"K  c #4C4B49",
"L  c #4E4E4E",
"P  c gray31",
"I  c #504E4E",
"U  c #504F4E",
"Y  c #54534F",
"T  c #514F50",
"R  c #565655",
"E  c #595754",
"W  c #5B5957",
"Q  c #5A5A5A",
"!  c #5D5C59",
"~  c #5F5E5B",
"^  c #5E5D5E",
"/  c gray37",
"(  c #5F5F5F",
")  c #615D5D",
"_  c #605E5C",
"`  c #61605C",
"'  c #62605D",
"]  c #63615E",
"[  c #62625E",
"{  c #63635F",
"}  c #605F60",
"|  c #626262",
" . c gray39",
".. c #646464",
"X. c #686564",
"o. c #6A6765",
"O. c #696767",
"+. c #6C6966",
"@. c DimGray",
"#. c #6D6A68",
"$. c #6F6B69",
"%. c #6F6F6F",
"&. c #706C6A",
"*. c #716D6B",
"=. c #726E6B",
"-. c #736F6C",
";. c #74706D",
":. c #75706D",
">. c #75716E",
",. c #76716E",
"<. c #727272",
"1. c gray45",
"2. c #907548",
"3. c #847F7D",
"4. c #947C7F",
"5. c #B7914D",
"6. c #87817D",
"7. c #85817E",
"8. c #86817E",
"9. c #87817E",
"0. c #86817F",
"q. c #86827E",
"w. c #87827E",
"e. c #86827F",
"r. c #2F3385",
"t. c #262E9F",
"y. c #2830A2",
"u. c #2931A5",
"i. c #2A33A9",
"p. c #2936D6",
"a. c #2533DD",
"s. c #2B37D9",
"d. c #2C39DD",
"f. c #1E2EE8",
"g. c #202FE9",
"h. c #2E3AE1",
"j. c #2130EA",
"k. c #2231EA",
"l. c #818181",
"z. c gray51",
"x. c #838383",
"c. c #8C8A87",
"v. c #8C8B87",
"b. c gray54",
"n. c #8D8B88",
"m. c #8D8C88",
"M. c #8E8D89",
"N. c #908E8A",
"B. c #91908C",
"V. c #93928E",
"C. c #969490",
"Z. c #999793",
"A. c #9C9A96",
"S. c #9F9E99",
"D. c #A09A96",
"F. c #A09A97",
"G. c #A09B97",
"H. c #A09B98",
"J. c #A09C99",
"K. c #A19C9A",
"L. c #A19D9A",
"P. c #A3A19D",
"I. c #A7A5A0",
"U. c #ACAAA5",
"Y. c #BFBDB9",
"T. c #BFBEBA",
"R. c #C0BCB9",
"E. c #C0BDB9",
"W. c #C1BDBA",
"Q. c #C0BEBA",
"!. c #C1BEBB",
"~. c #C0BFBB",
"^. c #C1BFBB",
"/. c #C1BEBC",
"(. c #C2BFBC",
"). c #C2BFBD",
"_. c #C2C0BC",
"`. c #C2C1BD",
"'. c #C2C0BE",
"]. c #C3C0BE",
"[. c #C4C3BE",
"{. c #C6C5C0",
"}. c #C9C7C3",
"|. c #CCCAC5",
" X c #CFCDC8",
".X c #D0CEC8",
"XX c #D2D0CB",
"oX c #D6D4CF",
"OX c #D7D5D1",
"+X c #D7D5D2",
"@X c #D7D6D2",
"#X c #D7D6D3",
"$X c #D8D5D1",
"%X c #D8D6D2",
"&X c #D8D6D3",
"*X c #D8D6D4",
"=X c #D8D7D4",
"-X c #DAD8D3",
";X c #E7E5E0",
":X c #F9F6EE",
">X c None",
/* pixels */
">Xo $ $ $ $ >X>X>X>X>X>X>X>X>X>X>X>X>X>X>X>X>X>X>X>X>X>X>X>X>X>X",
">Xb :X;X=XU.- >X>X>X>X>X>X>X>X>X>X>X>X>X>X>X>X>X>X>X>X>X>X>X>X>X",
">Xv .XX.D.*XI.< >X>X>X>X>X>X>X>X>X>X>X>X>X>X>X>X>X>X>X>X>X>X>X>X",
">Xg ].6.o.D.&XP.3 >X>X>X>X>X>X>X>X>X>X>X>X>X>X>X>X>X>X>X>X>X>X>X",
">Xc -X'.6.+.F.#XS.4 >X>X>X>X>X>X>X>X>X>X>X>X>X>X>X>X>X>X>X>X>X>X",
">X>XM oX).9.#.G.@XA.8 >X>X>X>X>X>X>X>X>X>X>X>X>X>X>X>X>X>X>X>X>X",
">X>X>XN XX).9.$.G.+XZ.q >X>X>X>X>X>X>X>X>X>X>X>X>X>X>X>X>X>X>X>X",
">X>X>X>XF  X(.w.&.H.+XC.r >X>X>X>X>X>X>X>X>X>X>X>X>X>X>X>X>X>X>X",
">X>X>X>X>XK |./.w.*.H.+XV.i >X>X>X>X>X>X>X>X>X>X>X>X>X>X>X>X>X>X",
">X>X>X>X>X>XU }.!.q.=.H.OXB.p >X>X>X>X>X>X>X>X>X>X>X>X>X>X>X>X>X",
">X>X>X>X>X>X>XY {.!.q.-.J.OXN.f >X>X>X>X>X>X>X>X>X>X>X>X>X>X>X>X",
">X>X>X>X>X>X>X>XE [.W.e.;.J.OXM.j >X>X>X>X>X>X>X>X>X>X>X>X>X>X>X",
">X>X>X>X>X>X>X>X>XW `.W.e.:.J.OXm.k >X>X>X>X>X>X>X>X>X>X>X>X>X>X",
">X>X>X>X>X>X>X>X>X>X! ^.W.e.:.J.OXv.z >X>X>X>X>X>X>X>X>X>X>X>X>X",
">X>X>X>X>X>X>X>X>X>X>X_ Q.E.e.>.J.OXv.x >X>X>X>X>X>X>X>X>X>X>X>X",
">X>X>X>X>X>X>X>X>X>X>X>X` T.E.0.,.K.$Xc.l >X>X>X>X>X>X>X>X>X>X>X",
">X>X>X>X>X>X>X>X>X>X>X>X>X] Y.E.0.,.K.$Xv.f >X>X>X>X>X>X>X>X>X>X",
">X>X>X>X>X>X>X>X>X>X>X>X>X>X{ Y.E.8.>.L.$Xn.s >X>X>X>X>X>X>X>X>X",
">X>X>X>X>X>X>X>X>X>X>X>X>X>X>X{ Y.R.8.:.L.%XR >X0 m 1 >X>X>X>X>X",
">X>X>X>X>X>X>X>X>X>X>X>X>X>X>X>X{ T.R.7.:.L.) t ( x.J H & . >X>X",
">X>X>X>X>X>X>X>X>X>X>X>X>X>X>X>X>X[ ~.R.7.e.T  .z.} G P L ..= >X",
">X>X>X>X>X>X>X>X>X>X>X>X>X>X>X>X>X>X' _.3.O.%.z.1.9 + >XH | # . ",
">X>X>X>X>X>X>X>X>X>X>X>X>X>X>X>X>X>X>X~ I  .z.1.D * >X>X>X>X>X>X",
">X>X>X>X>X>X>X>X>X>X>X>X>X>X>X>X>X>X>Xw / l.<.D y S 7 >X>X>X>X>X",
">X>X>X>X>X>X>X>X>X>X>X>X>X>X>X>X>X>X. L l.^ d 2 r.a.t.> >X>X>X>X",
">X>X>X>X>X>X>X>X>X>X>X>X>X>X>X>X>X>X>Xa %.h $ >XA p.k.y.: >X>X>X",
">X>X>X>X>X>X>X>X>X>X>X>X>X>X>X>X>X>X>X  @.u >X>X>XZ s.j.u.; >X>X",
">X>X>X>X>X>X>X>X>X>X>X>X>X>X>X>X>X>X>X  e Q q >X>X>XC d.g.i.% >X",
">X>X>X>X>X>X>X>X>X>X>X>X>X>X>X>X>X>X>X>Xo b.g >X>X>X>XV h.f.2.@ ",
">X>X>X>X>X>X>X>X>X>X>X>X>X>X>X>X>X>X>X>X>Xn , >X>X>X>X>XB 4.5.O ",
">X>X>X>X>X>X>X>X>X>X>X>X>X>X>X>X>X>X>X>X>X>X. >X>X>X>X>X>X6 5 X ",
">X>X>X>X>X>X>X>X>X>X>X>X>X>X>X>X>X>X>X>X>X>X>X>X>X>X>X>X>X>X>X>X"
};
