/* XPM */
static char *result[] = {
/* columns rows colors chars-per-pixel */
"32 32 9 1 ",
"  c #584B44",
". c #6D6666",
"X c #1B945F",
"o c #35A948",
"O c #0C896D",
"+ c #8B8484",
"@ c #BAB0B0",
"# c #9EDF8A",
"$ c None",
/* pixels */
"$$$$$$$$$$$$$$$@@@$$$$$$$$$$$$$$",
"$$$$$$$$$$++@  +++@  $$$$$$$$$$$",
"$$$$$$$@ +++@  +++@ ++@ $$$$$$$$",
"$$$$$ ++@ .++@ +++  ++@  +$$$$$$",
"$$$$  .++  .+@ ... ++@  ++@$$$$$",
"$$$+@  .+@  .ooooo.+@ ++++@ $$$$",
"$$ +++@ ++oo#######oo .+@@ +@$$$",
"$$ ..+@oo###ooooooo###o@  +++@$$",
"$    . o#oooXXXXXXXooo#oo.+++ $$",
"$  +@ ##oXXXXXXXXXXXXXo##.++  $$",
"$ .++@ooXXXXoooooooXXXXoo#.  +@$",
"$ ..++oXOXooo#####oooXOXoo +++@$",
"++    XXXoo##ooooo##ooXXXo.+++ $",
".++  XOXo##ooXXXXXoo##oXOXo.  @@",
" .+@@XXo#ooXXXXXXXXXoo#oXXX +++@",
"  .+@Xoo#oXXXoooooXXXo#ooXX.+++ ",
"     Xo#oXXoo#####oXXXo#oXX.++  ",
".++@ oo#oXoo#ooooo#oXXo#ooX   @@",
" +++@o#oXXo#ooXXXoo#oXXo#oX.+++@",
" .++@o#oXXo#oXOOOXo#oXXo#oX.+++@",
" . . o#oXXo#oXOOOXo#oXXo#oX ..  ",
"     o#oXXo#oXOOOXo#oXXo#oX+  @@",
"++@@ o#oXXo#ooXXXXo#oXXo#oX++++@",
".+++@oo#oXXo#ooooo#oXXo#ooX..+  ",
"..+  Xo#oXXXo#####ooXXo#oXX    @",
" .   Xoo#oXXoooooooXXo#ooXX++@  ",
"   @@XXo#ooXXXXXXXXXoo#oXXX+++@ ",
" +++@XOXo##ooXXXXXoo##oXOXo.+++@",
" ++++oXXXoo##ooooo##ooXXXo# .+  ",
"     ooXOXooo#####oooXOXoo#   @@",
"+++@ #ooXXXXoooooooXXXXoo#o.+++@",
"..++ o##oXXXXXXXXXXXXXo##oX .++ "
};
