/* XPM */
static char *result[] = {
/* columns rows colors chars-per-pixel */
"32 32 41 1 ",
"  c #2E1E22",
". c #323234",
"X c #760000",
"o c #5C2E00",
"O c #4D3B39",
"+ c #534721",
"@ c #444444",
"# c #565657",
"$ c #77584A",
"% c #705654",
"& c #6D6D6E",
"* c #767678",
"= c #AD0000",
"- c #FF2627",
"; c #964F00",
": c #8B5E4A",
"> c #9D704C",
", c #A77E5D",
"< c #8F7772",
"1 c #C79D00",
"2 c #E3B700",
"3 c #FFD600",
"4 c #FFFC00",
"5 c #D7906E",
"6 c #1A5586",
"7 c #286E9F",
"8 c #288DCB",
"9 c #858587",
"0 c #9F8781",
"q c #928A8C",
"w c #979799",
"e c #B89D92",
"r c #B7A099",
"t c #B7B7BB",
"y c #EEBE93",
"u c #FFE1AF",
"i c gray85",
"p c #D9D9DD",
"a c gray95",
"s c white",
"d c None",
/* pixels */
"dddddddddOOOOdddOOOOdddddddddddd",
"ddddddddddO<%OOOr<%OOOOOOddddddd",
"ddddddOOOOO%<<%r<%O<<%OOdddddddd",
"dddddddO%<%O%r<<%<<r<<%OOOdddddd",
"ddddddOOO%<<<<r<<<r<%Or<<%Oddddd",
"dddddO%<<<rr<<<<<<<<<r<%OOdddddd",
"ddddO%O%<<<<<<<r<<r<<<%<<%Oddddd",
"dddOOO%<r<<<r<rr<X%r<<<%<<%Odddd",
"dddddO<r<<<r<%r<%=X<<Xr<%O<%Oddd",
"ddddO%<<%<%<<X<<=-=%<X<r%%OOdddd",
"ddddO<<%<<X<%=<%---=<X%<%<Oddddd",
"dddO<%%<<%y%uu%uuuuy%y%<%%<Odddd",
"dddOO+%<%y+++uuuuu+++y5%5O%Odddd",
"dddOd+%<%yi puuuuup iy5%5+OOdddd",
"dddddO+%>ya quuuuuq ay>%+OdOdddd",
"dddddO%%>ysoouuuuuoosy>%%Odddddd",
"dddddO%O+5y;;uuuuu;;y5+O%Odddddd",
"ddddddO**+5yuuuuuuuy5+**Oddddddd",
"dddddd@*tt+>5yyyyy5>+tt*@ddddddd",
"ddddd@wttpt+++++++++tpttw@dddddd",
"ddddd@*pw9psspt*tpssp9wp*@dddddd",
"ddddd.@##.6pss212ssp6.##@.dddddd",
"ddddd+0&@.67s88488s76.@&0+dddddd",
"dddd+:,e..$678838876$..e,:+ddddd",
"dddd+,,:.@6$::999::$6@.:,,+ddddd",
"dddd+::+.@#788&4&887#@.+::+ddddd",
"ddddd++s+1##&&4#4&&##1+s++dddddd",
"ddddd*ss*+1334@@@4331+*ss*dddddd",
"ddddd*ss**+0e0+++0e0+**ss*dddddd",
"dddddd*s*d+:,$+d+$,:+d*s*ddddddd",
"ddddddd*dd+,,:+d+:,,+dd*dddddddd",
"ddddddddddd+++ddd+++dddddddddddd"
};
