/* XPM */
static char *result[] = {
/* columns rows colors chars-per-pixel */
"32 32 5 1 ",
"  c #102619",
". c #1F492B",
"X c #2E6D31",
"o c #529740",
"O c None",
/* pixels */
"OOOOOOOOOOOOOOOOOOOOOOOOOOOOOOOO",
"OOOOOOOOOOOOOOOOOOOOOOOOOOOOOOOO",
"OOOOOOOOOOOOOOOOOOOOOOOOOOOOOOOO",
"OOOOOOOOOOOOOOOOOOXXOOOOOOOOOOOO",
"OOOOOOOOOOOOOOOOOXoXXOOOOOOOOOOO",
"OOOOOOOOXXXXXXXXXooXXOOOXXXXOOOO",
"OOOOOOXXooooooXooooXXXOXooXOOOOO",
"OOOXXXooooooooooooXXXXXoooXXOOOO",
"OOXXOXXooooooooooXXXXoooXXXXXOOO",
"OOXOOXoooooooXXoXXXXXooXXXXXXXOO",
"OOOXXoooooooXXXXXXXXXoXXXXXXXXOO",
"OOXXooooooooXXXXXXXXXXXXXX.XXXXO",
"OOXoooooooooXXXooooooXXXX..XXXXO",
"OOXoooooXXXXXXooooooo..XX.....OO",
"OXXoooXXXXXoooooooooo...X......O",
"OXXXXXXXXXooooooooXX...........O",
"OXXXXXXXXooooooooX............OO",
"OOXXXXXooooooooXX............ OO",
"OOXXXXXoooXXooXX............  OO",
"OOXXXXXXXXX..XX......  ....  OOO",
"OOO X...... ........    ...  OOO",
"OOO  .....   ..  ..    ..    OOO",
"OOO   ..    ....            OOOO",
"OOOO        .               OOOO",
"OOOO                       OOOOO",
"OOOOO                    OOOOOOO",
"OOOOOOO               OOOOOOOOOO",
"OOOOOOOOOOOOOOOOOOOOOOOOOOOOOOOO",
"OOOOOOOOOOOOOOOOOOOOOOOOOOOOOOOO",
"OOOOOOOOOOOOOOOOOOOOOOOOOOOOOOOO",
"OOOOOOOOOOOOOOOOOOOOOOOOOOOOOOOO",
"OOOOOOOOOOOOOOOOOOOOOOOOOOOOOOOO"
};
