/* XPM */
static char *result[] = {
/* columns rows colors chars-per-pixel */
"32 32 50 1 ",
"  c #030402",
". c #1D2800",
"X c #2F3900",
"o c #233B08",
"O c #343B00",
"+ c #2E1E22",
"@ c #3A1A3B",
"# c #252624",
"$ c #323234",
"% c #640A0E",
"& c #3F5A1F",
"* c #444A00",
"= c #4B5209",
"- c #525F02",
"; c #764A00",
": c #76590C",
"> c #707010",
", c #1B0F41",
"< c #253141",
"1 c #5C3C5D",
"2 c #444444",
"3 c #474846",
"4 c #545456",
"5 c #5B7C40",
"6 c #465063",
"7 c #7E5E7F",
"8 c #686967",
"9 c #6D6D6E",
"0 c #971E2A",
"q c #C70000",
"w c #FF2627",
"e c #916600",
"r c #CB3044",
"t c #FF4460",
"y c #81850B",
"u c #93AC3E",
"i c #C79D00",
"p c #E3B700",
"a c #FFD600",
"s c #FFFC00",
"d c #8B8244",
"f c #95A052",
"g c #A1C563",
"h c #9F7FA0",
"j c #888A86",
"k c #AAACA8",
"l c #C09FC1",
"z c #DBBADC",
"x c #F9F7DA",
"c c None",
/* pixels */
"cccccccccccccccccccccccccccccccc",
"cccccccccccccccccccccccccccccccc",
"ccccccccccccceeseseecccccccccccc",
"cccccccccccccsei;iescccccccccccc",
"ccccccccccccoi;ese;ioccccccccccc",
"ccccccccccco&ip;a;pi&occcccccccc",
"ccccccccccO&5iqawaqi5&Occccccccc",
"cccccccccO-y&5ipqpi5&y-Occcccccc",
"cccccccccOyu&5&555&5&uyOcccccccc",
"ccccccccO-yuu&&5&5&&uuy-Occccccc",
"hcccOOccOyuugg&&&&&gguuhOccOOccc",
"hhcOyu-OOyugggg&g&gggghxhO-uyOcc",
"hxhcOyuyOyuggggggggggghxlyuyOccc",
"hxxhcO-yOyuggggggggggghxxh-Occcc",
"hxxlccO-O:%%%fgggggf%%hxxhOccccc",
"hzxzhccOO%++r0dgggd0r+hxxhcccccc",
"chxxhcccO=++tr%fgf%rt+hxxhcccccc",
"chzxlccc  >++++ggg++++hxxhcccccc",
"cchxzhc$$$Oyuggggggguyhxxhcccccc",
"cchzzh$2442O-yuuuuuy-Ohxxh ccccc",
"ccchzzh38994OOOOOOOOO4hxxh ccccc",
"ccchzzh@@339994sas4999hxxh$ccccc",
"ccc@hzz11@ 3499asa9943hxxh ccccc",
"cc@111@@@  3883###38@17771@@cccc",
"ccc@@@,,$$ <###383##@7hhhhh@cccc",
"ccccc$42$$ #<<<333<<<@@@1@@4$ccc",
"cccc$24$$ #38.X8k8X.83,66<,9$ccc",
"cccc$44$$ #83*.383.X38#,,,99$ccc",
"cccc$4$$$$ #**X   jj8# $$$99$ccc",
"ccccc$ccc$$#kkj $ 888 cc$$9$cccc",
"ccccccccccc j83#cc   ccccc$ccccc",
"ccccccccccc jj8#cccccccccccccccc"
};
