/* XPM */
static char *result[] = {
/* columns rows colors chars-per-pixel */
"32 32 50 1 ",
"  c #030402",
". c #1D2800",
"X c #2F3900",
"o c #233B08",
"O c #343B00",
"+ c #2E1E22",
"@ c #3A1A3B",
"# c #252624",
"$ c #323234",
"% c #640A0E",
"& c #3F5A1F",
"* c #444A00",
"= c #4B5209",
"- c #525F02",
"; c #764A00",
": c #76590C",
"> c #707010",
", c #1B0F41",
"< c #253141",
"1 c #5C3C5D",
"2 c #444444",
"3 c #474846",
"4 c #545456",
"5 c #5B7C40",
"6 c #465063",
"7 c #7E5E7F",
"8 c #686967",
"9 c #6D6D6E",
"0 c #971E2A",
"q c #C70000",
"w c #FF2627",
"e c #916600",
"r c #CB3044",
"t c #FF4460",
"y c #81850B",
"u c #93AC3E",
"i c #C79D00",
"p c #E3B700",
"a c #FFD600",
"s c #FFFC00",
"d c #8B8244",
"f c #95A052",
"g c #A1C563",
"h c #9F7FA0",
"j c #888A86",
"k c #AAACA8",
"l c #C09FC1",
"z c #DBBADC",
"x c #F9F7DA",
"c c None",
/* pixels */
"cccccccccccccccccccccccccccccccc",
"cccccccccccccccccccccccccccccccc",
"ccccccccccccceeseseecccccccccccc",
"cccccccccccccsei;iescccccccccccc",
"ccccccccccccoi;ese;ioccccccccccc",
"ccccccccccco&ip;a;pi&occcccccccc",
"ccccccccccO&5iqawaqi5&Occccccccc",
"cccccccccO-y&5ipqpi5&y-Occcccccc",
"cccccccccOyu&5&555&5&uyOcccccccc",
"ccccccccO-yuu&&5&5&&uuy-Occccccc",
"ccccOOccOhuugg&&&&&gguuyOccOOcch",
"cccOyu-Ohxhgggg&g&gggguyOO-uyOhl",
"ccccOyuylxhggggggggggguyOyuyOclz",
"cccccO-hxxhggggggggggguyOy-Ochxz",
"ccccccOhxxh%%dgggggd%%%:O-Occlxz",
"ccccccchxxh+r0dgggd0r++%OOcchzxl",
"ccccccchxxh+tr%fgf%rt++=Occchxxh",
"ccccccchxxh++++ggg++++>  ccclxzh",
"ccccccchxxhyuggggggguyO$$$chzxhc",
"cccccc$hxxhO-yuuuuuy-O4442 hzzhc",
"cccccc hxxh4OOOOOOOOO49923hzzhcc",
"cccccc$hxxh9994sas499993@@hzzhcc",
"cccccc hxxh3499asa9943 @11zzh@cc",
"ccccc@@17771@83###3883  @@@111@c",
"ccccc@hhhhh7@##383###< $$,,@@@cc",
"cccc$4@@1@@@<<<333<<<# $$24$cccc",
"cccc$9,<66,38.X8k8X.83# $$42$ccc",
"cccc$99,,,#83X.383.*38# $$44$ccc",
"cccc$99$$$ #8jj   X**# $$$$4$ccc",
"ccccc$9$$cc 888 $ jkk#$$ccc$cccc",
"cccccc$ccccc   cc#38j cccccccccc",
"ccccccccccccccccc#8jj cccccccccc"
};
