/* XPM */
static char *result[] = {
/* columns rows colors chars-per-pixel */
"32 32 49 1 ",
"  c #030402",
". c #1D2800",
"X c #233B08",
"o c #343B00",
"O c #2E1E22",
"+ c #3A1A3B",
"@ c #252624",
"# c #323234",
"$ c #640A0E",
"% c #3F5A1F",
"& c #525F02",
"* c #764A00",
"= c #534721",
"- c #1B0F41",
"; c #253141",
": c #5C3C5D",
"> c #444444",
", c #474846",
"< c #545456",
"1 c #5B7C40",
"2 c #465063",
"3 c #7E5E7F",
"4 c #686967",
"5 c #6D6D6E",
"6 c #971E2A",
"7 c #C70000",
"8 c #FF2627",
"9 c #916600",
"0 c #CB3044",
"q c #FF4460",
"w c #81850B",
"e c #93AC3E",
"r c #C79D00",
"t c #E3B700",
"y c #FFD600",
"u c #FFFC00",
"i c #8B8244",
"p c #8AA456",
"a c #95A052",
"s c #81A669",
"d c #A1C563",
"f c #6F788D",
"g c #9F7FA0",
"h c #888A86",
"j c #AAACA8",
"k c #C09FC1",
"l c #DBBADC",
"z c #F9F7DA",
"x c None",
/* pixels */
"xxxxxxxxxxxxxxxxxxxxxxxxxxxxxxxx",
"xxxxxxxxxxxxxx9xx9xxxxxxxxxxxxxx",
"xxxxxxxxxxx9x9u99uXxxxxxxxxxxxxx",
"xxxxxxxxxxxu9rrr9r%Xxxxxxxxxxxxx",
"xxxxxxxxxxxr**u9*u1%XxXxxxxxxxxx",
"xxxxxxxxxxX7tyyytrs1%X%Xxxxxxxxx",
"xxxxxxxxxX%1r8ttr111%11%Xxxxxxxx",
"xxxxxxxxxX1s11%%%%%111s1%Xxxxxxx",
"xxxxxxxxX%11%%ddddd%%1111Xxxxxxx",
"xxxxxxxxX%1%dddddddde%11%%Xxxxxx",
"xxxxxxxxg%%dddddddddde%111Xxxxxx",
"xxxxxxxxggeddddddddddee%1%Xxxxxx",
"xxxxxxxxgzgdddddddddeoo111Xxxxxx",
"xxxxxxxxgzkddddddddo&ddo1%Xxxxxx",
"xxxxxxxxgzzgi$$iddoedweo%Xxxxxxx",
"xxxxxxxxglzg60O$aded&eo&%Xxxxxxx",
"xxxxxxxxogzzgqOpddd&eow&Xxxxxxxx",
"xxxxxxxxoglzkOpdddewo&&oxxxxxxxx",
"xxxxxxxxxogzzgdddeww&&oxxxxxxxxx",
"xggggggxxxglzgeeeww&&oxxxxxxxxxx",
"xxgllllggxxgzzgooo>>>#xxxxxxxxxx",
"xxxggllllg=glzk55555<>#xxxxxxxxx",
"xxxxxgglll=ygzz+++j55<>#xxxxxxxx",
"xxxxxxxggl @glz:gg+h55<>#xxxxxxx",
"xxxxxxxxxg +:3gg:+@,,5<>>#xxxxxx",
"xxxxxxxxxx+3gg::+4,@ 5<<>#xxxxxx",
"xxxxxxxxxxx+++-ff,,  55<>>#xxxxx",
"xxxxxxxxxxx @,-;2; . 55<<>#xxxxx",
"xxxxxxxxxx , @----,, 55<<>#xxxxx",
"xxxxxxxxxx ,,,  ,4hh,55<>#xxxxxx",
"xxxxxxxxxxx   xx hhh45<##xxxxxxx",
"xxxxxxxxxxxxxxxxx    ##xxxxxxxxx"
};
