/* XPM */
static char *result[] = {
/* columns rows colors chars-per-pixel */
"32 32 48 1 ",
"  c #030402",
". c #1D2800",
"X c #233B08",
"o c #343B00",
"O c #2E1E22",
"+ c #3A1A3B",
"@ c #252624",
"# c #323234",
"$ c #640A0E",
"% c #3F5A1F",
"& c #525F02",
"* c #764A00",
"= c #1B0F41",
"- c #253141",
"; c #5C3C5D",
": c #444444",
"> c #474846",
", c #545456",
"< c #5B7C40",
"1 c #465063",
"2 c #7E5E7F",
"3 c #686967",
"4 c #6D6D6E",
"5 c #971E2A",
"6 c #C70000",
"7 c #FF2627",
"8 c #916600",
"9 c #CB3044",
"0 c #FF4460",
"q c #81850B",
"w c #93AC3E",
"e c #C79D00",
"r c #E3B700",
"t c #FFD600",
"y c #FFFC00",
"u c #8B8244",
"i c #8AA456",
"p c #95A052",
"a c #81A669",
"s c #A1C563",
"d c #6F788D",
"f c #9F7FA0",
"g c #888A86",
"h c #AAACA8",
"j c #C09FC1",
"k c #DBBADC",
"l c #F9F7DA",
"z c None",
/* pixels */
"zzzzzzzzzzzzzzzzzzzzzzzzzzzzzzzz",
"zzzzzzzzzzzzzz8zz8zzzzzzzzzzzzzz",
"zzzzzzzzzzz8z8y88yXzzzzzzzzzzzzz",
"zzzzzzzzzzzy8eee8e%Xzzzzzzzzzzzz",
"zzzzzzzzzzze**y8*y<%XzXzzzzzzzzz",
"zzzzzzzzzzX6rtttrea<%X%Xzzzzzzzz",
"zzzzzzzzzX%<e7rre<<<%<<%Xzzzzzzz",
"zzzzzzzzzX<a<<%%%%%<<<a<%Xzzzzzz",
"zzzzzzzzX%<<%%sssss%%<<<<Xzzzzzz",
"zzzzfzzzX%<%ssssssssw%<<%%Xzzzzz",
"zzzzffzzX%%ssssssssssw%<<<Xzzzzz",
"zzzzfkfzo%wssssssssssww%<%Xzzzzz",
"zzzzfkfzowsssssssssswoo<<<Xzzzzz",
"zzzzfkkfowssssssssso&sso<%Xzzzzz",
"zzzzfkkfowssu$$ussowsqwo%Xzzzzzz",
"zzzzzfkkowsu59O$psws&wo&%Xzzzzzz",
"zzzzzfkkoqp$90Oisss&woq&Xzzzzzzz",
"zzzzzzfko&wOOOissswqo&&ozzzzzzzz",
"zzzzzzfkkoqwssssswqq&&ozzzzzzzzz",
"zzzzzffffff&qqwwwqq&&ozzzzzzzzzz",
"zzzzzzflllkffooooo::::#zzzzzzzzz",
"zzzzzzzfjlllkff44444+,:#zzzzzzzz",
"zzzzzzzzffflllkff4,+2+,:##zzzzzz",
"zzzzzzz+;2 fjlllkff;f+4,,:#zzzzz",
"zzzzzz+222 @>fflllk2f+>4,,:#zzzz",
"zzzzzzz+++ >>--fjllf;31-4,::#zzz",
"zzzzzzzzzzz @3.3h+;f;dd-44,:#zzz",
"zzzzzzzzzzz @>.>g+f;+--=44,,#zzz",
"zzzzzzzzzzz >hg3@+f+>==#,4,:#zzz",
"zzzzzzzzzz gg>@@ z+>> ###,:#zzzz",
"zzzzzzzzzz gg3> zz   zz##:#zzzzz",
"zzzzzzzzzzz    zzzzzzzzzz#zzzzzz"
};
