/* XPM */
static char *result[] = {
/* columns rows colors chars-per-pixel */
"32 32 47 1 ",
"  c #030402",
". c #233B08",
"X c #343B00",
"o c #2E1E22",
"O c #3A1A3B",
"+ c #252624",
"@ c #323234",
"# c #640A0E",
"$ c #3F5A1F",
"% c #525F02",
"& c #764A00",
"* c #534721",
"= c #1B0F41",
"- c #253141",
"; c #5C3C5D",
": c #444444",
"> c #474846",
", c #545456",
"< c #5B7C40",
"1 c #465063",
"2 c #7E5E7F",
"3 c #686967",
"4 c #6D6D6E",
"5 c #971E2A",
"6 c #C70000",
"7 c #FF2627",
"8 c #916600",
"9 c #CB3044",
"0 c #FF4460",
"q c #81850B",
"w c #93AC3E",
"e c #C79D00",
"r c #E3B700",
"t c #FFD600",
"y c #FFFC00",
"u c #8B8244",
"i c #8AA456",
"p c #95A052",
"a c #81A669",
"s c #A1C563",
"d c #9F7FA0",
"f c #888A86",
"g c #AAACA8",
"h c #C09FC1",
"j c #DBBADC",
"k c #F9F7DA",
"l c None",
/* pixels */
"llllllllllllll8ll8llllllllllllll",
"lllllllllll8l8y88y.lllllllllllll",
"llllllllllly8eee8e$.llllllllllll",
"llllllllllle&&y8&y<$.l.lllllllll",
"llllllllll.6rtttrea<$.$.llllllll",
"lllllllll.$<e7rre<<<$<<$.lllllll",
"lllllllll.<a<<$$$$$<<<a<$.llllll",
"llllllll.$<<$$sssss$$<<<<.llllll",
"llllllll.$<$ssssssssw$<<$$.lllll",
"llllllll.$$ssssssssssw$<<<.lllll",
"llllllllX$wssssssssssww$<$.lllll",
"llldllllXwsssssssssswXX<<<.lllll",
"lllddlldXwsssssssssX%ssX<$.lllll",
"llldjdlddwssu##ussXwsqwX$.llllll",
"llldjjddkdsu59o#psws%wX%$.llllll",
"lllldjjdkkd#90oisss%wXq%.lllllll",
"lllldjjjhkkdooissswqX%%Xllllllll",
"llllldjjdkkkdsssswqq%%Xlllllllll",
"lllllldjjdjkkdwwwqq%%Xllllllllll",
"llllllldjjdjkkdXXX:::@llllllllll",
"lllllllldj*djkkd4444,:@lllllllll",
"llllllllld*tdjkkd4,Of,:@llllllll",
"llllllllll ++djkkdO2O>,:@lllllll",
"llllllllll +>+djkk2dO 4:@lllllll",
"llllllllll >>--dj2dO3 4,@lllllll",
"lllllllllO2 +3O;2d;3> 4,:@llllll",
"llllllllllO +O2dd;11-=44:@llllll",
"llllllllllll +OOO+===@44:@llllll",
"lllllllllllll >gf3> @@44:@llllll",
"llllllllllllll >>>+ @@,4:@llllll",
"llllllllllllll ff3> l@,4@lllllll",
"lllllllllllllll    lll@@llllllll"
};
