/* XPM */
static char *result[] = {
/* columns rows colors chars-per-pixel */
"32 32 31 1 ",
"  c #030402",
". c #233B08",
"X c #343B00",
"o c #3A1A3B",
"O c #252624",
"+ c #323234",
"@ c #3F5A1F",
"# c #525F02",
"$ c #764A00",
"% c #1B0F41",
"& c #253141",
"* c #5C3C5D",
"= c #444444",
"- c #545456",
"; c #5B7C40",
": c #465063",
"> c #686967",
", c #6D6D6E",
"< c #916600",
"1 c #81850B",
"2 c #93AC3E",
"3 c #C79D00",
"4 c #E3B700",
"5 c #FFD600",
"6 c #FFFC00",
"7 c #81A669",
"8 c #A1C563",
"9 c #6F788D",
"0 c #9F7FA0",
"q c #DBBADC",
"w c None",
/* pixels */
"wwwwwwwwwwwwwwwwwwwwwwwwwwwwwwww",
"wwwwwwwwwwwwwwww<wwwwwwwwwwwwwww",
"wwwwwwwwwwwww<.<5<.<wwwwwwwwwwww",
"wwwwwwwwwwwww6<333<6wwwwwwwwwwww",
"wwwwwwwwwwww.3$6<6$3.wwwwwwwwwww",
"wwwwwwwwwww.@345$543@.wwwwwwwwww",
"wwwwwwwwwwX@;<34543<;@Xwwwwwwwww",
"wwwwwwwwwX#@;7<333<7;@#Xwwwwwwww",
"wwwwwwwwwX12@;7;;;7;@21Xwwwwwwww",
"wwwwwwwwX#12@@;;7;;@@21#Xwwwwwww",
"w0wwXXwwX122@;@;;;@;@221XwwXXwww",
"w00X12#XX1228@;;;;;@8221XX#21Xww",
"w0q0X121X1228@@;@;@@8221X121Xwww",
"w0qq0X22X1222@@@;@@@2221X22Xwwww",
"w0qq0wX#X11222@@@@@22211X#Xwwwww",
"w0qqq0wXX#12222@2@22221#XXwwwwww",
"ww0qq0wwX#1122222222211#X0wwwwww",
"ww0qq0ww   11122222111   0wwwwww",
"www0qq0 O++ 111111111 ++O wwwwww",
"www0qq O+==++#11111#++==+O wwwww",
"wwww0q +==--=========--==+ wwwww",
"wwww0q +=--,,-------,,--=+wwwwww",
"wwwoo >+-=--,,,,,,,,,--===+owwww",
"wwo*%:9+,-==-,,,,,,,-=====+owwww",
"wwwo%99-,,--==-----==--===+wwwww",
"wwww%&+-,,,--=-,,---==--===+wwww",
"wwwww%-,,,,--=,,,,,,-=--====+www",
"wwwww+-,,,,,--,,,,,,,----===+www",
"wwww+-,,,,,,-,,,,,,,,,---==+wwww",
"wwww+=-,,,,,,,,-,,,,,,,-===+wwww",
"wwwww++=-,,,,----,,,,,--+++wwwww",
"wwwwwww++====------===++wwwwwwww"
};
