/* XPM */
static char *result[] = {
/* columns rows colors chars-per-pixel */
"32 32 48 1 ",
"  c #030402",
". c #1D2800",
"X c #233B08",
"o c #343B00",
"O c #2E1E22",
"+ c #3A1A3B",
"@ c #252624",
"# c #323234",
"$ c #640A0E",
"% c #3F5A1F",
"& c #525F02",
"* c #764A00",
"= c #1B0F41",
"- c #253141",
"; c #5C3C5D",
": c #444444",
"> c #474846",
", c #545456",
"< c #5B7C40",
"1 c #465063",
"2 c #7E5E7F",
"3 c #686967",
"4 c #6D6D6E",
"5 c #971E2A",
"6 c #C70000",
"7 c #FF2627",
"8 c #916600",
"9 c #CB3044",
"0 c #FF4460",
"q c #81850B",
"w c #93AC3E",
"e c #C79D00",
"r c #E3B700",
"t c #FFD600",
"y c #FFFC00",
"u c #8B8244",
"i c #8AA456",
"p c #95A052",
"a c #81A669",
"s c #A1C563",
"d c #6F788D",
"f c #9F7FA0",
"g c #888A86",
"h c #AAACA8",
"j c #C09FC1",
"k c #DBBADC",
"l c #F9F7DA",
"z c None",
/* pixels */
"zzzzzzzzzzzzzzzzzzzzzzzzzzzzzzzz",
"zzzzzzzzzzzzzzzz8zz8zzzzzzzzzzzz",
"zzzzzzzzzzzzzzXzy88y8z8zzzzzzzzz",
"zzzzzzzzzzzzzX%Xe8eee8yzzzzzzzzz",
"zzzzzzzzzzXzX%<%y*8y**ezzzzzzzzz",
"zzzzzzzzzX%X%<a<ertttr6zzzzzzzzz",
"zzzzzzzzX%<<%<<<<err7e%Xzzzzzzzz",
"zzzzzzzX%<a<<<%%%%%<<a<Xzzzzzzzz",
"zzzzzzzX<<<<%%sssss%%<<%Xzzzzzzz",
"zzzzzzX%%<<%wssssssss%<%Xzzzfzzz",
"zzzzzzX<<<%wssssssssss%%Xzzffzzz",
"zzzzzzX%<%wwssssssssssw%ozfkfzzz",
"zzzzzzX<<<oowsssssssssswozfkfzzz",
"zzzzzzX%<oss&ossssssssswofkkfzzz",
"zzzzzzzX%owqswossu$$usswofkkfzzz",
"zzzzzzzX%&ow&swsp$O95uswokkfzzzz",
"zzzzzzzzX&qow&sssiO09$pqokkfzzzz",
"zzzzzzzzzo&&oqwsssiOOOw&okfzzzzz",
"zzzzzzzzzzo&&qqwssssswqokkfzzzzz",
"zzzzzzzzzzzo&&qqwwwqq&ffffffzzzz",
"zzzzzzzzzz#::::oooooffklllfzzzzz",
"zzzzzzzzz#:,+44444ffkllljfzzzzzz",
"zzzzzzz##:,+2+,4ffklllfffzzzzzzz",
"zzzzzz#:,,4+f;ffkllljf 2;+zzzzzz",
"zzzzz#:,,4>+f2klllff>@ 222+zzzzz",
"zzzz#::,4-13;flljf-->> +++zzzzzz",
"zzzz#:,44-dd;f;+h3.3@ zzzzzzzzzz",
"zzzz#,,44=--+;f+g>.>@ zzzzzzzzzz",
"zzzz#:,4,#==>+f+@3gh> zzzzzzzzzz",
"zzzzz#:,### >>+z @@>gg zzzzzzzzz",
"zzzzzz#:##zz   zz >3gg zzzzzzzzz",
"zzzzzzz#zzzzzzzzzz    zzzzzzzzzz"
};
