/* XPM */
static char *result[] = {
/* columns rows colors chars-per-pixel */
"32 32 49 1 ",
"  c #030402",
". c #1D2800",
"X c #233B08",
"o c #343B00",
"O c #2E1E22",
"+ c #3A1A3B",
"@ c #252624",
"# c #323234",
"$ c #640A0E",
"% c #3F5A1F",
"& c #525F02",
"* c #764A00",
"= c #534721",
"- c #1B0F41",
"; c #253141",
": c #5C3C5D",
"> c #444444",
", c #474846",
"< c #545456",
"1 c #5B7C40",
"2 c #465063",
"3 c #7E5E7F",
"4 c #686967",
"5 c #6D6D6E",
"6 c #971E2A",
"7 c #C70000",
"8 c #FF2627",
"9 c #916600",
"0 c #CB3044",
"q c #FF4460",
"w c #81850B",
"e c #93AC3E",
"r c #C79D00",
"t c #E3B700",
"y c #FFD600",
"u c #FFFC00",
"i c #8B8244",
"p c #8AA456",
"a c #95A052",
"s c #81A669",
"d c #A1C563",
"f c #6F788D",
"g c #9F7FA0",
"h c #888A86",
"j c #AAACA8",
"k c #C09FC1",
"l c #DBBADC",
"z c #F9F7DA",
"x c None",
/* pixels */
"xxxxxxxxxxxxxxxxxxxxxxxxxxxxxxxx",
"xxxxxxxxxxxxxxxx9xx9xxxxxxxxxxxx",
"xxxxxxxxxxxxxxXxu99u9x9xxxxxxxxx",
"xxxxxxxxxxxxxX%Xr9rrr9uxxxxxxxxx",
"xxxxxxxxxxXxX%1%u*9u**rxxxxxxxxx",
"xxxxxxxxxX%X%1s1rtyyyt7xxxxxxxxx",
"xxxxxxxxX%11%1111rtt8r%Xxxxxxxxx",
"xxxxxxxX%1s111%%%%%11s1Xxxxxxxxx",
"xxxxxxxX1111%%ddddd%%11%Xxxxxxxx",
"xxxxxxX%%11%edddddddd%1%Xxxxxxxx",
"xxxxxxX111%edddddddddd%%gxxxxxxx",
"xxxxxxX%1%eeddddddddddeggxxxxxxx",
"xxxxxxX111ooedddddddddgzgxxxxxxx",
"xxxxxxX%1odd&oddddddddkzgxxxxxxx",
"xxxxxxxX%oewdeoddi$$igzzgxxxxxxx",
"xxxxxxxX%&oe&deda$O06gzlgxxxxxxx",
"xxxxxxxxX&woe&dddpOqgzzgoxxxxxxx",
"xxxxxxxxxo&&owedddpOkzlgoxxxxxxx",
"xxxxxxxxxxo&&wwedddgzzgoxxxxxxxx",
"xxxxxxxxxxxo&&wweeegzlgxxxgggggg",
"xxxxxxxxxxx#>>>ooogzzgxxggllllgx",
"xxxxxxxxxx#><55555kzlg=gllllggxx",
"xxxxxxxxx#><55j+++zzgy=lllggxxxx",
"xxxxxxxx#><55h+gg:zlg@ lggxxxxxx",
"xxxxxxx#>><5,,@+:gg3:+ gxxxxxxxx",
"xxxxxxx#><<5 @,4+::gg3+xxxxxxxxx",
"xxxxxx#>><55  ,,ff-+++xxxxxxxxxx",
"xxxxxx#><<55 . ;2;-,@ xxxxxxxxxx",
"xxxxxx#><<55 ,,----@ , xxxxxxxxx",
"xxxxxxx#><55,hh4,  ,,, xxxxxxxxx",
"xxxxxxxx##<54hhh xx   xxxxxxxxxx",
"xxxxxxxxxx##    xxxxxxxxxxxxxxxx"
};
