/* XPM */
static char *result[] = {
/* columns rows colors chars-per-pixel */
"32 32 41 1 ",
"  c #2E1E22",
". c #323234",
"X c #760000",
"o c #5C2E00",
"O c #4D3B39",
"+ c #534721",
"@ c #444444",
"# c #565657",
"$ c #77584A",
"% c #705654",
"& c #6D6D6E",
"* c #767678",
"= c #AD0000",
"- c #FF2627",
"; c #964F00",
": c #8B5E4A",
"> c #9D704C",
", c #A77E5D",
"< c #8F7772",
"1 c #C79D00",
"2 c #E3B700",
"3 c #FFD600",
"4 c #FFFC00",
"5 c #D7906E",
"6 c #1A5586",
"7 c #286E9F",
"8 c #288DCB",
"9 c #858587",
"0 c #9F8781",
"q c #928A8C",
"w c #979799",
"e c #B89D92",
"r c #B7A099",
"t c #B7B7BB",
"y c #EEBE93",
"u c #FFE1AF",
"i c gray85",
"p c #D9D9DD",
"a c gray95",
"s c white",
"d c None",
/* pixels */
"dddddddddddddddddddddddddddddddd",
"ddddddddddOOOOdddOOOOddddddddddd",
"dddddddddddO<%OOOr<%OOOOOOdddddd",
"dddddddOOOOO%<<%r<%O<<%OOddddddd",
"ddddddddO%<%O%r<<%<<r<<%OOOddddd",
"dddddddOOO%<<<<r<<<r<%Or<<%Odddd",
"ddddddO%<<<rr<<<<<<<<<r<%OOddddd",
"dddddO%O%<<<<<<<r<<r<<<%<<%Odddd",
"ddddOOO%<r<<<r<rr<X%r<<<%<<%Oddd",
"ddddddO<r<<<r<%r<%=X<<Xr<%O<%Odd",
"dddddO%<<%<%<<X<<=-=%<X<r%%OOddd",
"dddddO<<%<<X<%=<%---=<X%<%<Odddd",
"ddddO<%%<<%y%uu%uuuuy%y%<%%<Oddd",
"ddddOO+%<%y+++uuuuu+++y5%5O%Oddd",
"ddddOd+%<%yi puuuuup iy5%5+OOddd",
"ddddddO+%>ya quuuuuq ay>%+OdOddd",
"ddddddO%%>ysoouuuuuoosy>%%Oddddd",
"ddddddO%O+5y;;uuuuu;;y5+O%Oddddd",
"ddddddd@**+5yuuuuuuuy5+**@dddddd",
"dddddd@**tt+>5yyyyy5>+tt**@ddddd",
"dddddd@tpppt+++++++++tptpw@ddddd",
"dddddd@wtp9psspt*tpssp9ww*@ddddd",
"dddddd.&&&.6pss212ssp6.##@:+dddd",
"dddddd+0e&.67s88488s76..+::+dddd",
"dddddd+,,e+$678838876$.**++t*ddd",
"dddddd+,,,+6$::999::$6@.**ttt*dd",
"dddddd+$,:+#788&4&887#@.**tpt*dd",
"dddddd*+++1###&4#4&&&#1+***pt*dd",
"dddddd*sss+1133@@@4433+****t*ddd",
"dddddd*sss*+:::+*+0e0$*dddd*dddd",
"ddddddd*s**d+++dd$,,:+dddddddddd",
"dddddddd*dddddddd$,,,+dddddddddd"
};
