/* XPM */
static char *result[] = {
/* columns rows colors chars-per-pixel */
"32 32 40 1 ",
"  c #2E1E22",
". c #760000",
"X c #5C2E00",
"o c #4D3B39",
"O c #534721",
"+ c #444444",
"@ c #565657",
"# c #77584A",
"$ c #705654",
"% c #6D6D6E",
"& c #767678",
"* c #AD0000",
"= c #FF2627",
"- c #964F00",
"; c #8B5E4A",
": c #9D704C",
"> c #A77E5D",
", c #8F7772",
"< c #C79D00",
"1 c #E3B700",
"2 c #FFD600",
"3 c #FFFC00",
"4 c #D7906E",
"5 c #1A5586",
"6 c #286E9F",
"7 c #288DCB",
"8 c #858587",
"9 c #9F8781",
"0 c #928A8C",
"q c #979799",
"w c #B89D92",
"e c #B7A099",
"r c #B7B7BB",
"t c #EEBE93",
"y c #FFE1AF",
"u c gray85",
"i c #D9D9DD",
"p c gray95",
"a c white",
"s c None",
/* pixels */
"ssssssssssoooosssoooosssssssssss",
"ssssssssssso,$ooo$,$oooooossssss",
"sssssssoooooo,,$,,$oe,,$osssssss",
"sssssssso$,e$$,,e$,e,$$ooossssss",
"sssssssooo$,e,,e,,,,,,,,,$osssss",
"sssssso$,,,,,,,,,,,,e,,$oossssss",
"ssssso$,$,e,,,e,,,,$,e,,,$osssss",
"ssssoooo,e,,.,ee$,e,$,$$,,$ossss",
"sssssso,$e,$*$,e$,e,*$,.*o,$osss",
"ssssso$$o,,.=*,,*,,,=*$*=.oossss",
"ssssso$oO$,*==$,=$,$=*..*.$ossss",
"ssssssosOt$tyyy$y$$$$,$$=*$$osss",
"ssssssssOttyOOOyy,$$$,,$=**$osss",
"ssssssssOtyyi uyy,,ty,,,==*oosss",
"ssssssssOtyy0 pyy,t:y,,,==*oosss",
"ssssssssO4yyXXayy,y:t$,,==*ossss",
"ssssssssO:ty--yyy,t4O$,$==*ossss",
"sssssssssO4tyyyyyt44$$$$*=*.ssss",
"ssssssssssO:44ttt44:$o$o*=*.ssss",
"sssssssssssOOOOOOO&&o&os*=..ssss",
"sssssssssss&riiaaaairr&s...sssss",
"ssssssssssO<1aaairrirrr&ssssssss",
"sssssssssssO26ai7+&q&&r&ssssssss",
"sssssssssss+26777Oww9&ir&sssssss",
"sssssssssss+8;;;;O;>;&ai&sssssss",
"sssssssssss+@5677O>>;&air&ssssss",
"sssssssssssO<@%%%O>>#&air&ssssss",
"ssssssssssssO<2332OOO&air&ssssss",
"sssssssssssssOOww99Os&air&ssssss",
"ssssssssssssssO;>;#Os&ar&sssssss",
"ssssssssssssssO>>;#Oss&&ssssssss",
"sssssssssssssssOOOOsssssssssssss"
};
