/* XPM */
static char *result[] = {
/* columns rows colors chars-per-pixel */
"32 32 39 1 ",
"  c #2E1E22",
". c #760000",
"X c #5C2E00",
"o c #4D3B39",
"O c #534721",
"+ c #444444",
"@ c #565657",
"# c #77584A",
"$ c #705654",
"% c #6D6D6E",
"& c #767678",
"* c #AD0000",
"= c #FF2627",
"- c #964F00",
"; c #8B5E4A",
": c #9D704C",
"> c #A77E5D",
", c #8F7772",
"< c #C79D00",
"1 c #E3B700",
"2 c #FFD600",
"3 c #D7906E",
"4 c #1A5586",
"5 c #286E9F",
"6 c #288DCB",
"7 c #858587",
"8 c #9F8781",
"9 c #928A8C",
"0 c #979799",
"q c #B89D92",
"w c #B7A099",
"e c #B7B7BB",
"r c #EEBE93",
"t c #FFE1AF",
"y c gray85",
"u c #D9D9DD",
"i c gray95",
"p c white",
"a c None",
/* pixels */
"aaaaaaaaaaaaaaaaaaaaaaaaaaaaaaaa",
"aaaaaaaaaaooooaaaooooaaaaaaaaaaa",
"aaaaaaaaaaao,$ooo$,$ooooooaaaaaa",
"aaaaaaaoooooo,,$,,$ow,,$oaaaaaaa",
"aaaaaaaao$,w$$,,w$,w,$$oooaaaaaa",
"aaaaaaaooo$,w,,w,,,,,,,,,$oaaaaa",
"aaaaaao$,,,,,,,,,,,,w,,$ooaaaaaa",
"aaaaao$,$,w,,,w,,,,$,w,,,$oaaaaa",
"aaaaoooo,w,,.,ww$,w,$,$$,,$oaaaa",
"aaaaaao,$w,$*$,w$,w,*$,.*o,$oaaa",
"aaaaao$$o,,.=*,,*,,,=*$*=.ooaaaa",
"aaaaao$oO$,*==$,=$,$=*..*.$oaaaa",
"aaaaaaoaOr$rttt$t$$$$,$$=*$$oaaa",
"aaaaaaaaOrrtOOOtt,$$$,,$==*$oaaa",
"aaaaaaaaOrttu ytt,,rt,,,===ooaaa",
"aaaaaaaaOrtt9 itt,r:t,,,*===oaaa",
"aaaaaaaaO3ttXXptt,t:r$,,*===.aaa",
"aaaaaaaaO:rt--ttt,r3O$,$$*===aaa",
"aaaaaaaaaO3rtttttr33$$$$$*===.aa",
"aaaaaaaaaaO:33rrr33:$o$o$o=..*aa",
"aaaaaaaaaaaOOOOOOO&&oaoaoa.***aa",
"aaaaaaaaaaa&euupppuue&aaaaa**aaa",
"aaaaaaaaaaO<1pppueueue&aaaaaaaaa",
"aaaaaaaaaaaO25pu+&e0uue&aaaaaaaa",
"aaaaaaaaaaa+256Oqq@@puee&aaaaaaa",
"aaaaaaaaaaa+7;O>>>8%puee&&aaaaaa",
"aaaaaaaaaaa+@4O>>>#Opueee&aaaaaa",
"aaaaaaaaaaaO<@O;;#O%pue&e&aaaaaa",
"aaaaaaaaaaO;;<2OOO<2pue&&aaaaaaa",
"aaaaaaaaaaO;;;OO88>puee&aaaaaaaa",
"aaaaaaaaaaaOOOaaO>&ue&&aaaaaaaaa",
"aaaaaaaaaaaaaaaaaOO&&aaaaaaaaaaa"
};
