/* XPM */
static char *result[] = {
/* columns rows colors chars-per-pixel */
"32 32 40 1 ",
"  c #2E1E22",
". c #760000",
"X c #5C2E00",
"o c #4D3B39",
"O c #534721",
"+ c #444444",
"@ c #565657",
"# c #77584A",
"$ c #705654",
"% c #6D6D6E",
"& c #767678",
"* c #AD0000",
"= c #FF2627",
"- c #964F00",
"; c #8B5E4A",
": c #9D704C",
"> c #A77E5D",
", c #8F7772",
"< c #C79D00",
"1 c #E3B700",
"2 c #FFD600",
"3 c #FFFC00",
"4 c #D7906E",
"5 c #1A5586",
"6 c #286E9F",
"7 c #288DCB",
"8 c #858587",
"9 c #9F8781",
"0 c #928A8C",
"q c #979799",
"w c #B89D92",
"e c #B7A099",
"r c #B7B7BB",
"t c #EEBE93",
"y c #FFE1AF",
"u c gray85",
"i c #D9D9DD",
"p c gray95",
"a c white",
"s c None",
/* pixels */
"ssssssssssssoooosssoooosssssssss",
"sssssssoooooo$,$ooo$,ossssssssss",
"sssssssso$,,eo$,,$,,oooooossssss",
"sssssssooo$$,e,$e,,$$e,$osssssss",
"sssssso$,,,,,,,,,e,,e,$ooossssss",
"sssssssoo$,,e,,,,,,,,,,,,$osssss",
"sssssso$,,,e,$,,,,e,,,e,$,$ossss",
"ssssso$,,$$,$,e,$ee,.,,e,oooosss",
"sssso$,o*.,$*,e,$e,$*$,e$,osssss",
"sssssoo.=*$*=,,,*,,*=.,,o$$ossss",
"ssssso$.*..*=$,$=,$==*,$Oo$ossss",
"sssso$$*=$$,$$$$y$yyyt$tOsosssss",
"sssso$**=$,,$$$,yyOOOyttOsssssss",
"ssssoo*==,,,yt,,yyu iyytOsssssss",
"ssssoo*==,,,y:t,yyp 0yytOsssssss",
"ssssso*==,,$t:y,yyaXXyy4Osssssss",
"ssssso*==$,$O4t,yyy--yt:Osssssss",
"sssss.*=*$$$$44tyyyyyt4Ossssssss",
"sssss.*=*o$o$:44ttt44:Osssssssss",
"sssss..=*so&o&&OOOOOOOssssssssss",
"ssssss...s&rriaaaaiir&ssssssssss",
"sssssssss&rrrirriaaa1<Osssssssss",
"ssssssss&&r&&q&+7ia62Ossssssssss",
"sssssss&&ri&9wwO77762+ssssssssss",
"sssssss&&ia&;>;O;;;;8+ssssssssss",
"ssssss&&ria&;>>O7765@+ssssssssss",
"ssssss&&ria&#>>O%%%@<Ossssssssss",
"ssssss&&ria&OOO2332<Osssssssssss",
"ssssss&&ria&sO99wwOOssssssssssss",
"sssssss&&ra&sO#;>;Osssssssssssss",
"ssssssss&&&ssO#;>>Osssssssssssss",
"ssssssssssssssOOOOssssssssssssss"
};
