/* XPM */
static char *result[] = {
/* columns rows colors chars-per-pixel */
"32 32 39 1 ",
"  c #2E1E22",
". c #760000",
"X c #5C2E00",
"o c #4D3B39",
"O c #534721",
"+ c #444444",
"@ c #565657",
"# c #77584A",
"$ c #705654",
"% c #6D6D6E",
"& c #767678",
"* c #AD0000",
"= c #FF2627",
"- c #964F00",
"; c #8B5E4A",
": c #9D704C",
"> c #A77E5D",
", c #8F7772",
"< c #C79D00",
"1 c #E3B700",
"2 c #FFD600",
"3 c #D7906E",
"4 c #1A5586",
"5 c #286E9F",
"6 c #288DCB",
"7 c #858587",
"8 c #9F8781",
"9 c #928A8C",
"0 c #979799",
"q c #B89D92",
"w c #B7A099",
"e c #B7B7BB",
"r c #EEBE93",
"t c #FFE1AF",
"y c gray85",
"u c #D9D9DD",
"i c gray95",
"p c white",
"a c None",
/* pixels */
"aaaaaaaaaaaaaaaaaaaaaaaaaaaaaaaa",
"aaaaaaaaaaaaooooaaaooooaaaaaaaaa",
"aaaaaaaoooooo$,$ooo$,oaaaaaaaaaa",
"aaaaaaaao$,,wo$,,$,,ooooooaaaaaa",
"aaaaaaaooo$$,w,$w,,$$w,$oaaaaaaa",
"aaaaaao$,,,,,,,,,w,,w,$oooaaaaaa",
"aaaaaaaoo$,,w,,,,,,,,,,,,$oaaaaa",
"aaaaaao$,,,w,$,,,,w,,,w,$,$oaaaa",
"aaaaao$,,$$,$,w,$ww,.,,w,ooooaaa",
"aaaao$,o*.,$*,w,$w,$*$,w$,oaaaaa",
"aaaaaoo.=*$*=,,,*,,*=.,,o$$oaaaa",
"aaaaao$.*..*=$,$=,$==*,$Oo$oaaaa",
"aaaao$$*=$$,$$$$t$tttr$rOaoaaaaa",
"aaaao$*==$,,$$$,ttOOOtrrOaaaaaaa",
"aaaaoo===,,,tr,,tty uttrOaaaaaaa",
"aaaao===*,,,t:r,tti 9ttrOaaaaaaa",
"aaaa.===*,,$r:t,ttpXXtt3Oaaaaaaa",
"aaaa===*$$,$O3r,ttt--tr:Oaaaaaaa",
"aaa.===*$$$$$33rtttttr3Oaaaaaaaa",
"aaa*..=o$o$o$:33rrr33:Oaaaaaaaaa",
"aaa***.aoaoao&&OOOOOOOaaaaaaaaaa",
"aaaa**aaaaa&euupppuue&aaaaaaaaaa",
"aaaaaaaaaa&eueueuppp1<Oaaaaaaaaa",
"aaaaaaaa&&euu0e&+up52Oaaaaaaaaaa",
"aaaaaaa&&eeup@@qqO652+aaaaaaaaaa",
"aaaaaa&&&eeup%8>>>O;7+aaaaaaaaaa",
"aaaaaa&&eeeupO#>>>O4@+aaaaaaaaaa",
"aaaaaa&&e&eup%O#;;O@<Oaaaaaaaaaa",
"aaaaaaa&&&eup2<OOO2<;;Oaaaaaaaaa",
"aaaaaaaa&&eeup>88OO;;;Oaaaaaaaaa",
"aaaaaaaaa&&&eu&>OaaOOOaaaaaaaaaa",
"aaaaaaaaaaaa&&OOaaaaaaaaaaaaaaaa"
};
