/* XPM */
static char *result[] = {
/* columns rows colors chars-per-pixel */
"32 32 38 1 ",
"  c #2E1E22",
". c #760000",
"X c #5C2E00",
"o c #4D3B39",
"O c #534721",
"+ c #444444",
"@ c #565657",
"# c #77584A",
"$ c #705654",
"% c #6D6D6E",
"& c #767678",
"* c #AD0000",
"= c #FF2627",
"- c #964F00",
"; c #8B5E4A",
": c #9D704C",
"> c #A77E5D",
", c #8F7772",
"< c #C79D00",
"1 c #E3B700",
"2 c #FFD600",
"3 c #FFFC00",
"4 c #D7906E",
"5 c #286E9F",
"6 c #288DCB",
"7 c #858587",
"8 c #928A8C",
"9 c #979799",
"0 c #B89D92",
"q c #B7A099",
"w c #B7B7BB",
"e c #EEBE93",
"r c #FFE1AF",
"t c gray85",
"y c #D9D9DD",
"u c gray95",
"i c white",
"p c None",
/* pixels */
"pppppppppppppppppppppppppppppppp",
"ppppppppppppoooopppooooppppppppp",
"pppppppoooooo$,$ooo$,opppppppppp",
"ppppppppo$,,qo$,,$,,oooooopppppp",
"pppppppooo$$,q,$q,,$$q,$oppppppp",
"ppppppo$,,,,,,,,,q,,q,$ooopppppp",
"pppppppoo$,,q,,,,,,,,,,,,$oppppp",
"ppppppo$,,,q,$,,,,q,,,q,$,$opppp",
"pppppo$,,$$,$,q,$qq,.,,q,ooooppp",
"ppppo$,o*.,$*,q,$q,$*$,q$,oppppp",
"pppppoo.=*$*=,,,*,,*=.,,o$$opppp",
"pppppo$.*..*=$,$=,$==*,$Oo$opppp",
"ppppo$$*=$$,$$$$r$rrre$eOpoppppp",
"ppppo$*==$,,$$$,rrOOOreeOppppppp",
"ppppoo===,,,re,,rrt yrreOppppppp",
"ppppo*==*,,,r:e,rru 8rreOppppppp",
"pppp.**=*,,$e:r,rriXXrr4Oppppppp",
"pppp****$$,$O4e,rrr--re:Oppppppp",
"ppp.****$$$$$44errrrre4Opppppppp",
"ppp...*o$o$o$:44eee44:Oppppppppp",
"ppp....popo&o&&OOOOOOOpppppppppp",
"pppp..pppp&wwwyiiiyyw&pppppppppp",
"pppppppp&&yy9wyyyiii1<Oppppppppp",
"pppppp&&wiy&&9w+6yi52Opppppppppp",
"ppppp&&wiyw&0@O566652+pppppppppp",
"pppp&&wyiw&>>O;;;;;;7+pppppppppp",
"pppp&&yii&>>;O566665@+pppppppppp",
"ppp&&wiiy&;;O%%%%%%%2Opppppppppp",
"ppp&&wiiw&OO<<2223330Opppppppppp",
"pppp&&wi&&pO;;OOO#;;>>Oppppppppp",
"ppppp&&y&pppOOOppO#>>>Oppppppppp",
"pppppp&&ppppppppppOOOOpppppppppp"
};
